<?xml version="1.0" standalone="no"?>
<!DOCTYPE svg PUBLIC "-//W3C//DTD SVG 20010904//EN"
 "http://www.w3.org/TR/2001/REC-SVG-20010904/DTD/svg10.dtd">
<svg version="1.0" xmlns="http://www.w3.org/2000/svg"
 width="280.000000pt" height="280.000000pt" viewBox="0 0 280.000000 280.000000"
 preserveAspectRatio="xMidYMid meet">

<g transform="translate(0.000000,280.000000) scale(0.100000,-0.100000)"
fill="#000000" stroke="none">
<path d="M915 2086 c-130 -41 -219 -151 -231 -287 -10 -107 26 -206 100 -271
34 -30 56 -34 74 -16 20 20 14 38 -26 87 -73 88 -89 173 -48 263 28 64 62 99
124 130 47 23 51 23 489 26 307 2 448 0 463 -8 20 -10 20 -18 20 -374 l0 -364
31 -11 c64 -22 60 -47 57 373 -3 373 -4 385 -24 413 -11 15 -32 34 -45 40 -35
18 -927 17 -984 -1z"/>
<path d="M880 1811 c0 -33 4 -40 23 -43 l22 -3 5 -440 c5 -436 5 -440 28 -476
28 -46 77 -84 128 -99 27 -8 154 -10 429 -8 l390 3 46 29 c67 43 103 104 107
187 2 37 -1 84 -8 104 -16 49 -97 128 -147 143 -54 16 -741 17 -776 1 -34 -15
-47 -49 -47 -119 0 -48 4 -64 26 -89 22 -26 33 -31 70 -31 l44 0 0 40 c0 36
-2 40 -25 40 -23 0 -25 4 -25 46 l0 46 36 -7 c62 -11 83 -27 109 -79 30 -60
31 -81 5 -140 -41 -98 -179 -126 -258 -53 -51 47 -52 59 -52 514 l0 424 -25
24 c-18 18 -35 25 -65 25 -40 0 -40 0 -40 -39z m997 -686 c19 -4 43 -19 62
-40 52 -60 54 -147 4 -206 -47 -55 -68 -59 -333 -59 l-240 0 21 42 c32 62 36
141 10 213 -12 32 -21 59 -21 60 0 3 474 -7 497 -10z"/>
<path d="M1150 1790 l0 -40 254 0 c218 0 257 2 270 16 19 18 19 20 6 45 -10
18 -24 19 -270 19 l-260 0 0 -40z"/>
<path d="M1152 1598 l3 -43 266 -3 c146 -1 284 1 305 6 33 7 39 12 42 36 2 16
-2 33 -10 37 -7 5 -147 9 -311 9 l-298 0 3 -42z"/>
<path d="M1157 1443 c-4 -3 -7 -24 -7 -45 l0 -38 254 0 c246 0 255 1 269 21
19 26 11 56 -16 63 -31 8 -492 7 -500 -1z"/>
</g>
</svg>
